<svg class="rich-terminal" viewBox="0 0 1726 1148.0" xmlns="http://www.w3.org/2000/svg">
    <!-- Generated with Rich https://www.textualize.io -->
    <style>

    @font-face {
        font-family: "Fira Code";
        src: local("FiraCode-Regular"),
                url("https://cdnjs.cloudflare.com/ajax/libs/firacode/6.2.0/woff2/FiraCode-Regular.woff2") format("woff2"),
                url("https://cdnjs.cloudflare.com/ajax/libs/firacode/6.2.0/woff/FiraCode-Regular.woff") format("woff");
        font-style: normal;
        font-weight: 400;
    }
    @font-face {
        font-family: "Fira Code";
        src: local("FiraCode-Bold"),
                url("https://cdnjs.cloudflare.com/ajax/libs/firacode/6.2.0/woff2/FiraCode-Bold.woff2") format("woff2"),
                url("https://cdnjs.cloudflare.com/ajax/libs/firacode/6.2.0/woff/FiraCode-Bold.woff") format("woff");
        font-style: bold;
        font-weight: 700;
    }

    .terminal-808901990-matrix {
        font-family: Fira Code, monospace;
        font-size: 20px;
        line-height: 24.4px;
        font-variant-east-asian: full-width;
    }

    .terminal-808901990-title {
        font-size: 18px;
        font-weight: bold;
        font-family: arial;
    }

    .terminal-808901990-r1 { fill: #c5c8c6 }
.terminal-808901990-r2 { fill: #e0e0e0 }
.terminal-808901990-r3 { fill: #c5c6c7 }
.terminal-808901990-r4 { fill: #00ffff;font-weight: bold }
.terminal-808901990-r5 { fill: #a7abaf }
.terminal-808901990-r6 { fill: #ff0000 }
.terminal-808901990-r7 { fill: #ddedf9;font-weight: bold }
.terminal-808901990-r8 { fill: #7f7f7f }
.terminal-808901990-r9 { fill: #585858 }
.terminal-808901990-r10 { fill: #0178d4 }
.terminal-808901990-r11 { fill: #e0e0e0;font-weight: bold }
.terminal-808901990-r12 { fill: #ffa62b;font-weight: bold }
.terminal-808901990-r13 { fill: #495259 }
    </style>

    <defs>
    <clipPath id="terminal-808901990-clip-terminal">
      <rect x="0" y="0" width="1707.0" height="1097.0" />
    </clipPath>
    <clipPath id="terminal-808901990-line-0">
    <rect x="0" y="1.5" width="1708" height="24.65"/>
            </clipPath>
<clipPath id="terminal-808901990-line-1">
    <rect x="0" y="25.9" width="1708" height="24.65"/>
            </clipPath>
<clipPath id="terminal-808901990-line-2">
    <rect x="0" y="50.3" width="1708" height="24.65"/>
            </clipPath>
<clipPath id="terminal-808901990-line-3">
    <rect x="0" y="74.7" width="1708" height="24.65"/>
            </clipPath>
<clipPath id="terminal-808901990-line-4">
    <rect x="0" y="99.1" width="1708" height="24.65"/>
            </clipPath>
<clipPath id="terminal-808901990-line-5">
    <rect x="0" y="123.5" width="1708" height="24.65"/>
            </clipPath>
<clipPath id="terminal-808901990-line-6">
    <rect x="0" y="147.9" width="1708" height="24.65"/>
            </clipPath>
<clipPath id="terminal-808901990-line-7">
    <rect x="0" y="172.3" width="1708" height="24.65"/>
            </clipPath>
<clipPath id="terminal-808901990-line-8">
    <rect x="0" y="196.7" width="1708" height="24.65"/>
            </clipPath>
<clipPath id="terminal-808901990-line-9">
    <rect x="0" y="221.1" width="1708" height="24.65"/>
            </clipPath>
<clipPath id="terminal-808901990-line-10">
    <rect x="0" y="245.5" width="1708" height="24.65"/>
            </clipPath>
<clipPath id="terminal-808901990-line-11">
    <rect x="0" y="269.9" width="1708" height="24.65"/>
            </clipPath>
<clipPath id="terminal-808901990-line-12">
    <rect x="0" y="294.3" width="1708" height="24.65"/>
            </clipPath>
<clipPath id="terminal-808901990-line-13">
    <rect x="0" y="318.7" width="1708" height="24.65"/>
            </clipPath>
<clipPath id="terminal-808901990-line-14">
    <rect x="0" y="343.1" width="1708" height="24.65"/>
            </clipPath>
<clipPath id="terminal-808901990-line-15">
    <rect x="0" y="367.5" width="1708" height="24.65"/>
            </clipPath>
<clipPath id="terminal-808901990-line-16">
    <rect x="0" y="391.9" width="1708" height="24.65"/>
            </clipPath>
<clipPath id="terminal-808901990-line-17">
    <rect x="0" y="416.3" width="1708" height="24.65"/>
            </clipPath>
<clipPath id="terminal-808901990-line-18">
    <rect x="0" y="440.7" width="1708" height="24.65"/>
            </clipPath>
<clipPath id="terminal-808901990-line-19">
    <rect x="0" y="465.1" width="1708" height="24.65"/>
            </clipPath>
<clipPath id="terminal-808901990-line-20">
    <rect x="0" y="489.5" width="1708" height="24.65"/>
            </clipPath>
<clipPath id="terminal-808901990-line-21">
    <rect x="0" y="513.9" width="1708" height="24.65"/>
            </clipPath>
<clipPath id="terminal-808901990-line-22">
    <rect x="0" y="538.3" width="1708" height="24.65"/>
            </clipPath>
<clipPath id="terminal-808901990-line-23">
    <rect x="0" y="562.7" width="1708" height="24.65"/>
            </clipPath>
<clipPath id="terminal-808901990-line-24">
    <rect x="0" y="587.1" width="1708" height="24.65"/>
            </clipPath>
<clipPath id="terminal-808901990-line-25">
    <rect x="0" y="611.5" width="1708" height="24.65"/>
            </clipPath>
<clipPath id="terminal-808901990-line-26">
    <rect x="0" y="635.9" width="1708" height="24.65"/>
            </clipPath>
<clipPath id="terminal-808901990-line-27">
    <rect x="0" y="660.3" width="1708" height="24.65"/>
            </clipPath>
<clipPath id="terminal-808901990-line-28">
    <rect x="0" y="684.7" width="1708" height="24.65"/>
            </clipPath>
<clipPath id="terminal-808901990-line-29">
    <rect x="0" y="709.1" width="1708" height="24.65"/>
            </clipPath>
<clipPath id="terminal-808901990-line-30">
    <rect x="0" y="733.5" width="1708" height="24.65"/>
            </clipPath>
<clipPath id="terminal-808901990-line-31">
    <rect x="0" y="757.9" width="1708" height="24.65"/>
            </clipPath>
<clipPath id="terminal-808901990-line-32">
    <rect x="0" y="782.3" width="1708" height="24.65"/>
            </clipPath>
<clipPath id="terminal-808901990-line-33">
    <rect x="0" y="806.7" width="1708" height="24.65"/>
            </clipPath>
<clipPath id="terminal-808901990-line-34">
    <rect x="0" y="831.1" width="1708" height="24.65"/>
            </clipPath>
<clipPath id="terminal-808901990-line-35">
    <rect x="0" y="855.5" width="1708" height="24.65"/>
            </clipPath>
<clipPath id="terminal-808901990-line-36">
    <rect x="0" y="879.9" width="1708" height="24.65"/>
            </clipPath>
<clipPath id="terminal-808901990-line-37">
    <rect x="0" y="904.3" width="1708" height="24.65"/>
            </clipPath>
<clipPath id="terminal-808901990-line-38">
    <rect x="0" y="928.7" width="1708" height="24.65"/>
            </clipPath>
<clipPath id="terminal-808901990-line-39">
    <rect x="0" y="953.1" width="1708" height="24.65"/>
            </clipPath>
<clipPath id="terminal-808901990-line-40">
    <rect x="0" y="977.5" width="1708" height="24.65"/>
            </clipPath>
<clipPath id="terminal-808901990-line-41">
    <rect x="0" y="1001.9" width="1708" height="24.65"/>
            </clipPath>
<clipPath id="terminal-808901990-line-42">
    <rect x="0" y="1026.3" width="1708" height="24.65"/>
            </clipPath>
<clipPath id="terminal-808901990-line-43">
    <rect x="0" y="1050.7" width="1708" height="24.65"/>
            </clipPath>
    </defs>

    <rect fill="#292929" stroke="rgba(255,255,255,0.35)" stroke-width="1" x="1" y="1" width="1724" height="1146" rx="8"/><text class="terminal-808901990-title" fill="#c5c8c6" text-anchor="middle" x="862" y="27">AnalyzerApp</text>
            <g transform="translate(26,22)">
            <circle cx="0" cy="0" r="7" fill="#ff5f57"/>
            <circle cx="22" cy="0" r="7" fill="#febc2e"/>
            <circle cx="44" cy="0" r="7" fill="#28c840"/>
            </g>
        
    <g transform="translate(9, 41)" clip-path="url(#terminal-808901990-clip-terminal)">
    <rect fill="#242f38" x="0" y="1.5" width="12.2" height="24.65" shape-rendering="crispEdges"/><rect fill="#242f38" x="12.2" y="1.5" width="12.2" height="24.65" shape-rendering="crispEdges"/><rect fill="#242f38" x="24.4" y="1.5" width="61" height="24.65" shape-rendering="crispEdges"/><rect fill="#242f38" x="85.4" y="1.5" width="12.2" height="24.65" shape-rendering="crispEdges"/><rect fill="#242f38" x="97.6" y="1.5" width="671" height="24.65" shape-rendering="crispEdges"/><rect fill="#242f38" x="768.6" y="1.5" width="134.2" height="24.65" shape-rendering="crispEdges"/><rect fill="#242f38" x="902.8" y="1.5" width="683.2" height="24.65" shape-rendering="crispEdges"/><rect fill="#2c363f" x="1586" y="1.5" width="12.2" height="24.65" shape-rendering="crispEdges"/><rect fill="#2c363f" x="1598.2" y="1.5" width="97.6" height="24.65" shape-rendering="crispEdges"/><rect fill="#2c363f" x="1695.8" y="1.5" width="12.2" height="24.65" shape-rendering="crispEdges"/><rect fill="#242f38" x="0" y="25.9" width="12.2" height="24.65" shape-rendering="crispEdges"/><rect fill="#242f38" x="12.2" y="25.9" width="122" height="24.65" shape-rendering="crispEdges"/><rect fill="#242f38" x="134.2" y="25.9" width="158.6" height="24.65" shape-rendering="crispEdges"/><rect fill="#242f38" x="292.8" y="25.9" width="109.8" height="24.65" shape-rendering="crispEdges"/><rect fill="#242f38" x="402.6" y="25.9" width="268.4" height="24.65" shape-rendering="crispEdges"/><rect fill="#242f38" x="671" y="25.9" width="1024.8" height="24.65" shape-rendering="crispEdges"/><rect fill="#242f38" x="1695.8" y="25.9" width="12.2" height="24.65" shape-rendering="crispEdges"/><rect fill="#0178d4" x="0" y="50.3" width="12.2" height="24.65" shape-rendering="crispEdges"/><rect fill="#0178d4" x="12.2" y="50.3" width="73.2" height="24.65" shape-rendering="crispEdges"/><rect fill="#0178d4" x="85.4" y="50.3" width="12.2" height="24.65" shape-rendering="crispEdges"/><rect fill="#1e1e1e" x="97.6" y="50.3" width="12.2" height="24.65" shape-rendering="crispEdges"/><rect fill="#1e1e1e" x="109.8" y="50.3" width="97.6" height="24.65" shape-rendering="crispEdges"/><rect fill="#1e1e1e" x="207.4" y="50.3" width="12.2" height="24.65" shape-rendering="crispEdges"/><rect fill="#1e1e1e" x="219.6" y="50.3" width="12.2" height="24.65" shape-rendering="crispEdges"/><rect fill="#1e1e1e" x="231.8" y="50.3" width="122" height="24.65" shape-rendering="crispEdges"/><rect fill="#1e1e1e" x="353.8" y="50.3" width="12.2" height="24.65" shape-rendering="crispEdges"/><rect fill="#1e1e1e" x="366" y="50.3" width="1342" height="24.65" shape-rendering="crispEdges"/><rect fill="#1e1e1e" x="0" y="74.7" width="12.2" height="24.65" shape-rendering="crispEdges"/><rect fill="#1e1e1e" x="12.2" y="74.7" width="73.2" height="24.65" shape-rendering="crispEdges"/><rect fill="#1e1e1e" x="85.4" y="74.7" width="12.2" height="24.65" shape-rendering="crispEdges"/><rect fill="#1e1e1e" x="97.6" y="74.7" width="1610.4" height="24.65" shape-rendering="crispEdges"/><rect fill="#242f38" x="0" y="99.1" width="36.6" height="24.65" shape-rendering="crispEdges"/><rect fill="#242f38" x="36.6" y="99.1" width="524.6" height="24.65" shape-rendering="crispEdges"/><rect fill="#242f38" x="561.2" y="99.1" width="427" height="24.65" shape-rendering="crispEdges"/><rect fill="#242f38" x="988.2" y="99.1" width="61" height="24.65" shape-rendering="crispEdges"/><rect fill="#242f38" x="1049.2" y="99.1" width="122" height="24.65" shape-rendering="crispEdges"/><rect fill="#222a31" x="1171.2" y="99.1" width="536.8" height="24.65" shape-rendering="crispEdges"/><rect fill="#153854" x="0" y="123.5" width="36.6" height="24.65" shape-rendering="crispEdges"/><rect fill="#1e1e1e" x="36.6" y="123.5" width="524.6" height="24.65" shape-rendering="crispEdges"/><rect fill="#1e1e1e" x="561.2" y="123.5" width="427" height="24.65" shape-rendering="crispEdges"/><rect fill="#1e1e1e" x="988.2" y="123.5" width="61" height="24.65" shape-rendering="crispEdges"/><rect fill="#1e1e1e" x="1049.2" y="123.5" width="122" height="24.65" shape-rendering="crispEdges"/><rect fill="#1e1e1e" x="1171.2" y="123.5" width="536.8" height="24.65" shape-rendering="crispEdges"/><rect fill="#1e1e1e" x="0" y="147.9" width="36.6" height="24.65" shape-rendering="crispEdges"/><rect fill="#1e1e1e" x="36.6" y="147.9" width="524.6" height="24.65" shape-rendering="crispEdges"/><rect fill="#1e1e1e" x="561.2" y="147.9" width="427" height="24.65" shape-rendering="crispEdges"/><rect fill="#1e1e1e" x="988.2" y="147.9" width="61" height="24.65" shape-rendering="crispEdges"/><rect fill="#1e1e1e" x="1049.2" y="147.9" width="122" height="24.65" shape-rendering="crispEdges"/><rect fill="#1e1e1e" x="1171.2" y="147.9" width="536.8" height="24.65" shape-rendering="crispEdges"/><rect fill="#1e1e1e" x="0" y="172.3" width="36.6" height="24.65" shape-rendering="crispEdges"/><rect fill="#1e1e1e" x="36.6" y="172.3" width="524.6" height="24.65" shape-rendering="crispEdges"/><rect fill="#1e1e1e" x="561.2" y="172.3" width="427" height="24.65" shape-rendering="crispEdges"/><rect fill="#1e1e1e" x="988.2" y="172.3" width="61" height="24.65" shape-rendering="crispEdges"/><rect fill="#1e1e1e" x="1049.2" y="172.3" width="122" height="24.65" shape-rendering="crispEdges"/><rect fill="#1e1e1e" x="1171.2" y="172.3" width="536.8" height="24.65" shape-rendering="crispEdges"/><rect fill="#1e1e1e" x="0" y="196.7" width="36.6" height="24.65" shape-rendering="crispEdges"/><rect fill="#1e1e1e" x="36.6" y="196.7" width="524.6" height="24.65" shape-rendering="crispEdges"/><rect fill="#1e1e1e" x="561.2" y="196.7" width="427" height="24.65" shape-rendering="crispEdges"/><rect fill="#1e1e1e" x="988.2" y="196.7" width="61" height="24.65" shape-rendering="crispEdges"/><rect fill="#1e1e1e" x="1049.2" y="196.7" width="122" height="24.65" shape-rendering="crispEdges"/><rect fill="#1e1e1e" x="1171.2" y="196.7" width="536.8" height="24.65" shape-rendering="crispEdges"/><rect fill="#1e1e1e" x="0" y="221.1" width="36.6" height="24.65" shape-rendering="crispEdges"/><rect fill="#1e1e1e" x="36.6" y="221.1" width="524.6" height="24.65" shape-rendering="crispEdges"/><rect fill="#1e1e1e" x="561.2" y="221.1" width="427" height="24.65" shape-rendering="crispEdges"/><rect fill="#1e1e1e" x="988.2" y="221.1" width="61" height="24.65" shape-rendering="crispEdges"/><rect fill="#1e1e1e" x="1049.2" y="221.1" width="122" height="24.65" shape-rendering="crispEdges"/><rect fill="#1e1e1e" x="1171.2" y="221.1" width="536.8" height="24.65" shape-rendering="crispEdges"/><rect fill="#1e1e1e" x="0" y="245.5" width="36.6" height="24.65" shape-rendering="crispEdges"/><rect fill="#1e1e1e" x="36.6" y="245.5" width="524.6" height="24.65" shape-rendering="crispEdges"/><rect fill="#1e1e1e" x="561.2" y="245.5" width="427" height="24.65" shape-rendering="crispEdges"/><rect fill="#1e1e1e" x="988.2" y="245.5" width="61" height="24.65" shape-rendering="crispEdges"/><rect fill="#1e1e1e" x="1049.2" y="245.5" width="122" height="24.65" shape-rendering="crispEdges"/><rect fill="#1e1e1e" x="1171.2" y="245.5" width="536.8" height="24.65" shape-rendering="crispEdges"/><rect fill="#1e1e1e" x="0" y="269.9" width="1708" height="24.65" shape-rendering="crispEdges"/><rect fill="#1e1e1e" x="0" y="294.3" width="1708" height="24.65" shape-rendering="crispEdges"/><rect fill="#1e1e1e" x="0" y="318.7" width="1708" height="24.65" shape-rendering="crispEdges"/><rect fill="#1e1e1e" x="0" y="343.1" width="1708" height="24.65" shape-rendering="crispEdges"/><rect fill="#1e1e1e" x="0" y="367.5" width="1708" height="24.65" shape-rendering="crispEdges"/><rect fill="#1e1e1e" x="0" y="391.9" width="1708" height="24.65" shape-rendering="crispEdges"/><rect fill="#1e1e1e" x="0" y="416.3" width="1708" height="24.65" shape-rendering="crispEdges"/><rect fill="#1e1e1e" x="0" y="440.7" width="1708" height="24.65" shape-rendering="crispEdges"/><rect fill="#1e1e1e" x="0" y="465.1" width="1708" height="24.65" shape-rendering="crispEdges"/><rect fill="#1e1e1e" x="0" y="489.5" width="1708" height="24.65" shape-rendering="crispEdges"/><rect fill="#1e1e1e" x="0" y="513.9" width="1708" height="24.65" shape-rendering="crispEdges"/><rect fill="#1e1e1e" x="0" y="538.3" width="1708" height="24.65" shape-rendering="crispEdges"/><rect fill="#1e1e1e" x="0" y="562.7" width="1708" height="24.65" shape-rendering="crispEdges"/><rect fill="#1e1e1e" x="0" y="587.1" width="1708" height="24.65" shape-rendering="crispEdges"/><rect fill="#1e1e1e" x="0" y="611.5" width="1708" height="24.65" shape-rendering="crispEdges"/><rect fill="#1e1e1e" x="0" y="635.9" width="1708" height="24.65" shape-rendering="crispEdges"/><rect fill="#1e1e1e" x="0" y="660.3" width="1708" height="24.65" shape-rendering="crispEdges"/><rect fill="#1e1e1e" x="0" y="684.7" width="1708" height="24.65" shape-rendering="crispEdges"/><rect fill="#1e1e1e" x="0" y="709.1" width="1708" height="24.65" shape-rendering="crispEdges"/><rect fill="#1e1e1e" x="0" y="733.5" width="1708" height="24.65" shape-rendering="crispEdges"/><rect fill="#1e1e1e" x="0" y="757.9" width="1708" height="24.65" shape-rendering="crispEdges"/><rect fill="#1e1e1e" x="0" y="782.3" width="1708" height="24.65" shape-rendering="crispEdges"/><rect fill="#1e1e1e" x="0" y="806.7" width="1708" height="24.65" shape-rendering="crispEdges"/><rect fill="#1e1e1e" x="0" y="831.1" width="1708" height="24.65" shape-rendering="crispEdges"/><rect fill="#1e1e1e" x="0" y="855.5" width="1708" height="24.65" shape-rendering="crispEdges"/><rect fill="#1e1e1e" x="0" y="879.9" width="1708" height="24.65" shape-rendering="crispEdges"/><rect fill="#1e1e1e" x="0" y="904.3" width="1708" height="24.65" shape-rendering="crispEdges"/><rect fill="#1e1e1e" x="0" y="928.7" width="1708" height="24.65" shape-rendering="crispEdges"/><rect fill="#1e1e1e" x="0" y="953.1" width="1708" height="24.65" shape-rendering="crispEdges"/><rect fill="#1e1e1e" x="0" y="977.5" width="1708" height="24.65" shape-rendering="crispEdges"/><rect fill="#1e1e1e" x="0" y="1001.9" width="1708" height="24.65" shape-rendering="crispEdges"/><rect fill="#1e1e1e" x="0" y="1026.3" width="1708" height="24.65" shape-rendering="crispEdges"/><rect fill="#1e1e1e" x="0" y="1050.7" width="1708" height="24.65" shape-rendering="crispEdges"/><rect fill="#242f38" x="0" y="1075.1" width="36.6" height="24.65" shape-rendering="crispEdges"/><rect fill="#242f38" x="36.6" y="1075.1" width="73.2" height="24.65" shape-rendering="crispEdges"/><rect fill="#242f38" x="109.8" y="1075.1" width="36.6" height="24.65" shape-rendering="crispEdges"/><rect fill="#242f38" x="146.4" y="1075.1" width="158.6" height="24.65" shape-rendering="crispEdges"/><rect fill="#242f38" x="305" y="1075.1" width="36.6" height="24.65" shape-rendering="crispEdges"/><rect fill="#242f38" x="341.6" y="1075.1" width="61" height="24.65" shape-rendering="crispEdges"/><rect fill="#242f38" x="402.6" y="1075.1" width="1159" height="24.65" shape-rendering="crispEdges"/><rect fill="#242f38" x="1561.6" y="1075.1" width="12.2" height="24.65" shape-rendering="crispEdges"/><rect fill="#242f38" x="1573.8" y="1075.1" width="24.4" height="24.65" shape-rendering="crispEdges"/><rect fill="#242f38" x="1598.2" y="1075.1" width="97.6" height="24.65" shape-rendering="crispEdges"/><rect fill="#242f38" x="1695.8" y="1075.1" width="12.2" height="24.65" shape-rendering="crispEdges"/>
    <g class="terminal-808901990-matrix">
    <text class="terminal-808901990-r2" x="12.2" y="20" textLength="12.2" clip-path="url(#terminal-808901990-line-0)">⭘</text><text class="terminal-808901990-r2" x="768.6" y="20" textLength="134.2" clip-path="url(#terminal-808901990-line-0)">AnalyzerApp</text><text class="terminal-808901990-r3" x="1598.2" y="20" textLength="97.6" clip-path="url(#terminal-808901990-line-0)">13:43:06</text><text class="terminal-808901990-r1" x="1708" y="20" textLength="12.2" clip-path="url(#terminal-808901990-line-0)">
</text><text class="terminal-808901990-r4" x="12.2" y="44.4" textLength="122" clip-path="url(#terminal-808901990-line-1)">playwright</text><text class="terminal-808901990-r5" x="134.2" y="44.4" textLength="158.6" clip-path="url(#terminal-808901990-line-1)">&#160;·&#160;8&#160;tests&#160;·&#160;</text><text class="terminal-808901990-r6" x="292.8" y="44.4" textLength="109.8" clip-path="url(#terminal-808901990-line-1)">6&#160;failing</text><text class="terminal-808901990-r5" x="402.6" y="44.4" textLength="268.4" clip-path="url(#terminal-808901990-line-1)">&#160;·&#160;0&#160;hypotheses&#160;·&#160;0.3s</text><text class="terminal-808901990-r1" x="1708" y="44.4" textLength="12.2" clip-path="url(#terminal-808901990-line-1)">
</text><text class="terminal-808901990-r7" x="12.2" y="68.8" textLength="73.2" clip-path="url(#terminal-808901990-line-2)">Triage</text><text class="terminal-808901990-r8" x="109.8" y="68.8" textLength="97.6" clip-path="url(#terminal-808901990-line-2)">Evidence</text><text class="terminal-808901990-r8" x="231.8" y="68.8" textLength="122" clip-path="url(#terminal-808901990-line-2)">Hypotheses</text><text class="terminal-808901990-r1" x="1708" y="68.8" textLength="12.2" clip-path="url(#terminal-808901990-line-2)">
</text><text class="terminal-808901990-r9" x="0" y="93.2" textLength="12.2" clip-path="url(#terminal-808901990-line-3)">╸</text><text class="terminal-808901990-r10" x="12.2" y="93.2" textLength="73.2" clip-path="url(#terminal-808901990-line-3)">━━━━━━</text><text class="terminal-808901990-r9" x="85.4" y="93.2" textLength="12.2" clip-path="url(#terminal-808901990-line-3)">╺</text><text class="terminal-808901990-r9" x="97.6" y="93.2" textLength="1610.4" clip-path="url(#terminal-808901990-line-3)">━━━━━━━━━━━━━━━━━━━━━━━━━━━━━━━━━━━━━━━━━━━━━━━━━━━━━━━━━━━━━━━━━━━━━━━━━━━━━━━━━━━━━━━━━━━━━━━━━━━━━━━━━━━━━━━━━━━━━━━━━━━━━━━━━━━━</text><text class="terminal-808901990-r1" x="1708" y="93.2" textLength="12.2" clip-path="url(#terminal-808901990-line-3)">
</text><text class="terminal-808901990-r11" x="0" y="117.6" textLength="36.6" clip-path="url(#terminal-808901990-line-4)">&#160;#&#160;</text><text class="terminal-808901990-r11" x="36.6" y="117.6" textLength="524.6" clip-path="url(#terminal-808901990-line-4)">&#160;Test&#160;&#160;&#160;&#160;&#160;&#160;&#160;&#160;&#160;&#160;&#160;&#160;&#160;&#160;&#160;&#160;&#160;&#160;&#160;&#160;&#160;&#160;&#160;&#160;&#160;&#160;&#160;&#160;&#160;&#160;&#160;&#160;&#160;&#160;&#160;&#160;&#160;&#160;</text><text class="terminal-808901990-r11" x="561.2" y="117.6" textLength="427" clip-path="url(#terminal-808901990-line-4)">&#160;File&#160;&#160;&#160;&#160;&#160;&#160;&#160;&#160;&#160;&#160;&#160;&#160;&#160;&#160;&#160;&#160;&#160;&#160;&#160;&#160;&#160;&#160;&#160;&#160;&#160;&#160;&#160;&#160;&#160;&#160;</text><text class="terminal-808901990-r11" x="988.2" y="117.6" textLength="61" clip-path="url(#terminal-808901990-line-4)">&#160;Got&#160;</text><text class="terminal-808901990-r11" x="1049.2" y="117.6" textLength="122" clip-path="url(#terminal-808901990-line-4)">&#160;Expected&#160;</text><text class="terminal-808901990-r1" x="1708" y="117.6" textLength="12.2" clip-path="url(#terminal-808901990-line-4)">
</text><text class="terminal-808901990-r2" x="0" y="142" textLength="36.6" clip-path="url(#terminal-808901990-line-5)">&#160;1&#160;</text><text class="terminal-808901990-r2" x="36.6" y="142" textLength="524.6" clip-path="url(#terminal-808901990-line-5)">&#160;login&#160;returns&#160;token&#160;for&#160;valid&#160;credentials&#160;</text><text class="terminal-808901990-r2" x="561.2" y="142" textLength="427" clip-path="url(#terminal-808901990-line-5)">&#160;tests\playwright\auth.spec.ts:7&#160;&#160;&#160;</text><text class="terminal-808901990-r2" x="988.2" y="142" textLength="61" clip-path="url(#terminal-808901990-line-5)">&#160;404&#160;</text><text class="terminal-808901990-r2" x="1049.2" y="142" textLength="122" clip-path="url(#terminal-808901990-line-5)">&#160;200&#160;&#160;&#160;&#160;&#160;&#160;</text><text class="terminal-808901990-r1" x="1708" y="142" textLength="12.2" clip-path="url(#terminal-808901990-line-5)">
</text><text class="terminal-808901990-r2" x="0" y="166.4" textLength="36.6" clip-path="url(#terminal-808901990-line-6)">&#160;2&#160;</text><text class="terminal-808901990-r2" x="36.6" y="166.4" textLength="524.6" clip-path="url(#terminal-808901990-line-6)">&#160;invalid&#160;credentials&#160;return&#160;401&#160;&#160;&#160;&#160;&#160;&#160;&#160;&#160;&#160;&#160;&#160;&#160;</text><text class="terminal-808901990-r2" x="561.2" y="166.4" textLength="427" clip-path="url(#terminal-808901990-line-6)">&#160;tests\playwright\auth.spec.ts:17&#160;&#160;</text><text class="terminal-808901990-r2" x="988.2" y="166.4" textLength="61" clip-path="url(#terminal-808901990-line-6)">&#160;404&#160;</text><text class="terminal-808901990-r2" x="1049.2" y="166.4" textLength="122" clip-path="url(#terminal-808901990-line-6)">&#160;401&#160;&#160;&#160;&#160;&#160;&#160;</text><text class="terminal-808901990-r1" x="1708" y="166.4" textLength="12.2" clip-path="url(#terminal-808901990-line-6)">
</text><text class="terminal-808901990-r2" x="0" y="190.8" textLength="36.6" clip-path="url(#terminal-808901990-line-7)">&#160;3&#160;</text><text class="terminal-808901990-r2" x="36.6" y="190.8" textLength="524.6" clip-path="url(#terminal-808901990-line-7)">&#160;authenticated&#160;user&#160;can&#160;fetch&#160;own&#160;profile&#160;&#160;</text><text class="terminal-808901990-r2" x="561.2" y="190.8" textLength="427" clip-path="url(#terminal-808901990-line-7)">&#160;tests\playwright\auth.spec.ts:29&#160;&#160;</text><text class="terminal-808901990-r2" x="988.2" y="190.8" textLength="61" clip-path="url(#terminal-808901990-line-7)">&#160;404&#160;</text><text class="terminal-808901990-r2" x="1049.2" y="190.8" textLength="122" clip-path="url(#terminal-808901990-line-7)">&#160;200&#160;&#160;&#160;&#160;&#160;&#160;</text><text class="terminal-808901990-r1" x="1708" y="190.8" textLength="12.2" clip-path="url(#terminal-808901990-line-7)">
</text><text class="terminal-808901990-r2" x="0" y="215.2" textLength="36.6" clip-path="url(#terminal-808901990-line-8)">&#160;4&#160;</text><text class="terminal-808901990-r2" x="36.6" y="215.2" textLength="524.6" clip-path="url(#terminal-808901990-line-8)">&#160;token&#160;refresh&#160;extends&#160;session&#160;&#160;&#160;&#160;&#160;&#160;&#160;&#160;&#160;&#160;&#160;&#160;&#160;</text><text class="terminal-808901990-r2" x="561.2" y="215.2" textLength="427" clip-path="url(#terminal-808901990-line-8)">&#160;tests\playwright\auth.spec.ts:40&#160;&#160;</text><text class="terminal-808901990-r2" x="988.2" y="215.2" textLength="61" clip-path="url(#terminal-808901990-line-8)">&#160;404&#160;</text><text class="terminal-808901990-r2" x="1049.2" y="215.2" textLength="122" clip-path="url(#terminal-808901990-line-8)">&#160;200&#160;&#160;&#160;&#160;&#160;&#160;</text><text class="terminal-808901990-r1" x="1708" y="215.2" textLength="12.2" clip-path="url(#terminal-808901990-line-8)">
</text><text class="terminal-808901990-r2" x="0" y="239.6" textLength="36.6" clip-path="url(#terminal-808901990-line-9)">&#160;5&#160;</text><text class="terminal-808901990-r2" x="36.6" y="239.6" textLength="524.6" clip-path="url(#terminal-808901990-line-9)">&#160;deactivated&#160;staging&#160;account&#160;returns&#160;404&#160;&#160;&#160;</text><text class="terminal-808901990-r2" x="561.2" y="239.6" textLength="427" clip-path="url(#terminal-808901990-line-9)">&#160;tests\playwright\users.spec.ts:21&#160;</text><text class="terminal-808901990-r2" x="988.2" y="239.6" textLength="61" clip-path="url(#terminal-808901990-line-9)">&#160;404&#160;</text><text class="terminal-808901990-r2" x="1049.2" y="239.6" textLength="122" clip-path="url(#terminal-808901990-line-9)">&#160;200&#160;&#160;&#160;&#160;&#160;&#160;</text><text class="terminal-808901990-r1" x="1708" y="239.6" textLength="12.2" clip-path="url(#terminal-808901990-line-9)">
</text><text class="terminal-808901990-r2" x="0" y="264" textLength="36.6" clip-path="url(#terminal-808901990-line-10)">&#160;6&#160;</text><text class="terminal-808901990-r2" x="36.6" y="264" textLength="524.6" clip-path="url(#terminal-808901990-line-10)">&#160;get&#160;known&#160;user&#160;by&#160;id&#160;returns&#160;user&#160;profile&#160;</text><text class="terminal-808901990-r2" x="561.2" y="264" textLength="427" clip-path="url(#terminal-808901990-line-10)">&#160;tests\playwright\users.spec.ts:29&#160;</text><text class="terminal-808901990-r2" x="988.2" y="264" textLength="61" clip-path="url(#terminal-808901990-line-10)">&#160;?&#160;&#160;&#160;</text><text class="terminal-808901990-r2" x="1049.2" y="264" textLength="122" clip-path="url(#terminal-808901990-line-10)">&#160;?&#160;&#160;&#160;&#160;&#160;&#160;&#160;&#160;</text><text class="terminal-808901990-r1" x="1708" y="264" textLength="12.2" clip-path="url(#terminal-808901990-line-10)">
</text><text class="terminal-808901990-r1" x="1708" y="288.4" textLength="12.2" clip-path="url(#terminal-808901990-line-11)">
</text><text class="terminal-808901990-r1" x="1708" y="312.8" textLength="12.2" clip-path="url(#terminal-808901990-line-12)">
</text><text class="terminal-808901990-r1" x="1708" y="337.2" textLength="12.2" clip-path="url(#terminal-808901990-line-13)">
</text><text class="terminal-808901990-r1" x="1708" y="361.6" textLength="12.2" clip-path="url(#terminal-808901990-line-14)">
</text><text class="terminal-808901990-r1" x="1708" y="386" textLength="12.2" clip-path="url(#terminal-808901990-line-15)">
</text><text class="terminal-808901990-r1" x="1708" y="410.4" textLength="12.2" clip-path="url(#terminal-808901990-line-16)">
</text><text class="terminal-808901990-r1" x="1708" y="434.8" textLength="12.2" clip-path="url(#terminal-808901990-line-17)">
</text><text class="terminal-808901990-r1" x="1708" y="459.2" textLength="12.2" clip-path="url(#terminal-808901990-line-18)">
</text><text class="terminal-808901990-r1" x="1708" y="483.6" textLength="12.2" clip-path="url(#terminal-808901990-line-19)">
</text><text class="terminal-808901990-r1" x="1708" y="508" textLength="12.2" clip-path="url(#terminal-808901990-line-20)">
</text><text class="terminal-808901990-r1" x="1708" y="532.4" textLength="12.2" clip-path="url(#terminal-808901990-line-21)">
</text><text class="terminal-808901990-r1" x="1708" y="556.8" textLength="12.2" clip-path="url(#terminal-808901990-line-22)">
</text><text class="terminal-808901990-r1" x="1708" y="581.2" textLength="12.2" clip-path="url(#terminal-808901990-line-23)">
</text><text class="terminal-808901990-r1" x="1708" y="605.6" textLength="12.2" clip-path="url(#terminal-808901990-line-24)">
</text><text class="terminal-808901990-r1" x="1708" y="630" textLength="12.2" clip-path="url(#terminal-808901990-line-25)">
</text><text class="terminal-808901990-r1" x="1708" y="654.4" textLength="12.2" clip-path="url(#terminal-808901990-line-26)">
</text><text class="terminal-808901990-r1" x="1708" y="678.8" textLength="12.2" clip-path="url(#terminal-808901990-line-27)">
</text><text class="terminal-808901990-r1" x="1708" y="703.2" textLength="12.2" clip-path="url(#terminal-808901990-line-28)">
</text><text class="terminal-808901990-r1" x="1708" y="727.6" textLength="12.2" clip-path="url(#terminal-808901990-line-29)">
</text><text class="terminal-808901990-r1" x="1708" y="752" textLength="12.2" clip-path="url(#terminal-808901990-line-30)">
</text><text class="terminal-808901990-r1" x="1708" y="776.4" textLength="12.2" clip-path="url(#terminal-808901990-line-31)">
</text><text class="terminal-808901990-r1" x="1708" y="800.8" textLength="12.2" clip-path="url(#terminal-808901990-line-32)">
</text><text class="terminal-808901990-r1" x="1708" y="825.2" textLength="12.2" clip-path="url(#terminal-808901990-line-33)">
</text><text class="terminal-808901990-r1" x="1708" y="849.6" textLength="12.2" clip-path="url(#terminal-808901990-line-34)">
</text><text class="terminal-808901990-r1" x="1708" y="874" textLength="12.2" clip-path="url(#terminal-808901990-line-35)">
</text><text class="terminal-808901990-r1" x="1708" y="898.4" textLength="12.2" clip-path="url(#terminal-808901990-line-36)">
</text><text class="terminal-808901990-r1" x="1708" y="922.8" textLength="12.2" clip-path="url(#terminal-808901990-line-37)">
</text><text class="terminal-808901990-r1" x="1708" y="947.2" textLength="12.2" clip-path="url(#terminal-808901990-line-38)">
</text><text class="terminal-808901990-r1" x="1708" y="971.6" textLength="12.2" clip-path="url(#terminal-808901990-line-39)">
</text><text class="terminal-808901990-r1" x="1708" y="996" textLength="12.2" clip-path="url(#terminal-808901990-line-40)">
</text><text class="terminal-808901990-r1" x="1708" y="1020.4" textLength="12.2" clip-path="url(#terminal-808901990-line-41)">
</text><text class="terminal-808901990-r1" x="1708" y="1044.8" textLength="12.2" clip-path="url(#terminal-808901990-line-42)">
</text><text class="terminal-808901990-r1" x="1708" y="1069.2" textLength="12.2" clip-path="url(#terminal-808901990-line-43)">
</text><text class="terminal-808901990-r12" x="0" y="1093.6" textLength="36.6" clip-path="url(#terminal-808901990-line-44)">&#160;r&#160;</text><text class="terminal-808901990-r2" x="36.6" y="1093.6" textLength="73.2" clip-path="url(#terminal-808901990-line-44)">Rerun&#160;</text><text class="terminal-808901990-r12" x="109.8" y="1093.6" textLength="36.6" clip-path="url(#terminal-808901990-line-44)">&#160;g&#160;</text><text class="terminal-808901990-r2" x="146.4" y="1093.6" textLength="158.6" clip-path="url(#terminal-808901990-line-44)">Create&#160;issue&#160;</text><text class="terminal-808901990-r12" x="305" y="1093.6" textLength="36.6" clip-path="url(#terminal-808901990-line-44)">&#160;q&#160;</text><text class="terminal-808901990-r2" x="341.6" y="1093.6" textLength="61" clip-path="url(#terminal-808901990-line-44)">Quit&#160;</text><text class="terminal-808901990-r13" x="1561.6" y="1093.6" textLength="12.2" clip-path="url(#terminal-808901990-line-44)">▏</text><text class="terminal-808901990-r12" x="1573.8" y="1093.6" textLength="24.4" clip-path="url(#terminal-808901990-line-44)">^p</text><text class="terminal-808901990-r2" x="1598.2" y="1093.6" textLength="97.6" clip-path="url(#terminal-808901990-line-44)">&#160;palette</text>
    </g>
    </g>
</svg>
